{"title":"Conan the Barbarian (2011) BRRip NL subs DutchReleaseTeam","uid":6800821,"size":742361550,"categoryP":"video","categoryS":"movies","magnet":"?xt=urn:btih:ef972262bfaf605bb478ab1bdf08c2122689b3d4&amp;dn=Conan+the+Barbarian+%282011%29+BRRip+NL+subs+DutchReleaseTeam&amp;tr=udp%3A%2F%2Ftracker.openbittorrent.com%3A80&amp;tr=udp%3A%2F%2Fopen.demonii.com%3A1337&amp;tr=udp%3A%2F%2Ftracker.coppersurfer.tk%3A6969&amp;tr=udp%3A%2F%2Fexodus.desync.com%3A6969","seeders":0,"leechers":2,"uploader":"Koedje","files":-1,"time":1320680855,"description":" &lt;a href=&quot;http://img200.imageshack.us/img200/4009/conanthebarba.jpg&quot; rel=&quot;nofollow&quot; target=&quot;_NEW&quot;&gt;http://img200.imageshack.us/img200/4009/conanthebarba.jpg&lt;/a&gt;\n\n\nVerenigde Staten\nActie / Avontuur\n112 minuten\n\ngeregisseerd door Marcus Nispel\nmet Jason Momoa, Rachel Nichols en Ron Perlman\n\nConan (Momoa) is de laatste van zijn volk. Hij zag zijn vader sterven en is vastbesloten om zijn vader te wreken. Hij zal iedereen doden die verantwoordelijk was voor de dood van zijn volk. Maar hij heeft een erg gevaarlijke vijand: de almachtige Khalar Sing.\n\n\n\nVertaald door het DRT Vertaalteam:\nDÃƒÂ©sirÃƒÂ©e\n\nControle: Eppo/DÃƒÂ©sirÃƒÂ©e\nSync: Opa38\n\n\n\n\nScreenshots:\n &lt;a href=&quot;\nhttp://img51.imageshack.us/img51/5159/screenshot1jpe.jpg&quot; rel=&quot;nofollow&quot; target=&quot;_NEW&quot;&gt;\nhttp://img51.imageshack.us/img51/5159/screenshot1jpe.jpg&lt;/a&gt;\n &lt;a href=&quot;\nhttp://img811.imageshack.us/img811/629/screenshot2pe.jpg&quot; rel=&quot;nofollow&quot; target=&quot;_NEW&quot;&gt;\nhttp://img811.imageshack.us/img811/629/screenshot2pe.jpg&lt;/a&gt;\n &lt;a href=&quot;\nhttp://img685.imageshack.us/img685/1148/screenshot3wlv.jpg&quot; rel=&quot;nofollow&quot; target=&quot;_NEW&quot;&gt;\nhttp://img685.imageshack.us/img685/1148/screenshot3wlv.jpg&lt;/a&gt;\n\n\n\n\nINFO;\n\n\nFormat                                   : AVI\nFormat/Info                              : Audio Video Interleave\nFile size                                : 705 MiB\nDuration                                 : 1h 52mn\nOverall bit rate mode                    : Variable\nOverall bit rate                         : 874 Kbps\n\n\nVideo\nID                                       : 0\nFormat                                   : MPEG-4 Visual\nFormat profile                           : Advanced Simple@L5\nFormat settings, BVOP                    : 1\nFormat settings, QPel                    : No\nFormat settings, GMC                     : No warppoints\nFormat settings, Matrix                  : Default (H.263)\nMuxing mode                              : Packed bitstream\nCodec ID                                 : XVID\nCodec ID/Hint                            : XviD\nDuration                                 : 1h 52mn\nBit rate                                 : 726 Kbps\nWidth                                    : 640 pixels\nHeight                                   : 272 pixels\nDisplay aspect ratio                     : 2.35:1\nFrame rate                               : 23.976 fps\nColor space                              : YUV\nChroma subsampling                       : 4:2:0\nBit depth                                : 8 bits\nScan type                                : Progressive\nCompression mode                         : Lossy\nBits/(Pixel*Frame)                       : 0.174\nStream size                              : 586 MiB (83%)\nWriting library                          : XviD 64\n\nAudio\nID                                       : 1\nFormat                                   : MPEG Audio\nFormat version                           : Version 1\nFormat profile                           : Layer 3\nMode                                     : Joint stereo\nMode extension                           : MS Stereo\nCodec ID                                 : 55\nCodec ID/Hint                            : MP3\nDuration                                 : 1h 52mn\nBit rate mode                            : Variable\nBit rate                                 : 135 Kbps\nNominal bit rate                         : 144 Kbps\nChannel(s)                               : 2 channels\nSampling rate                            : 48.0 KHz\nCompression mode                         : Lossy\nStream size                              : 109 MiB (15%)\n\n\n\n\n\nDeze film wordt u aangeboden door het DutchReleaseTeam.\nVoor de reviews van de nieuwste films, muziek, series, games etc\nga dan eens naar http://www.hetmultimediacafe.be\n\nDutchReleaseteam = Hardcoded Dutch Subs","torrent":{"xt":"urn:btih:ef972262bfaf605bb478ab1bdf08c2122689b3d4","amp;dn":"Conan+the+Barbarian+%282011%29+BRRip+NL+subs+DutchReleaseTeam","amp;tr":["udp%3A%2F%2Ftracker.openbittorrent.com%3A80","udp%3A%2F%2Fopen.demonii.com%3A1337","udp%3A%2F%2Ftracker.coppersurfer.tk%3A6969","udp%3A%2F%2Fexodus.desync.com%3A6969"],"infoHash":"ef972262bfaf605bb478ab1bdf08c2122689b3d4","infoHashBuffer":{"type":"Buffer","data":[239,151,34,98,191,175,96,91,180,120,171,27,223,8,194,18,38,137,179,212]},"announce":[],"urlList":[]}}